<svg xmlns="http://www.w3.org/2000/svg" version="1.1" xmlns:xlink="http://www.w3.org/1999/xlink" xmlns:svgjs="http://svgjs.com/svgjs" width="512" height="512" x="0" y="0" viewBox="0 0 511.999 511.999" style="enable-background:new 0 0 512 512" xml:space="preserve" class=""><g>
<path style="" d="M501.715,384.52L320.543,51.206c-13.814-22.822-37.836-36.636-64.562-36.636
	s-50.748,13.814-64.562,36.636c0,0.298-0.298,0.298-0.298,0.6L10.549,383.92c-13.812,23.723-14.112,51.95-0.6,75.673
	c13.512,23.721,37.834,37.836,65.161,37.836h361.741c27.327,0,51.65-14.114,65.161-37.836
	C515.526,435.869,515.226,407.642,501.715,384.52z" fill="#fea832" data-original="#fea832" class=""></path>
<path style="" d="M75.103,467.399c-16.627,0-30.849-8.27-39.06-22.667c-8.211-14.413-8.065-31.084,0.469-45.717
	l179.205-329.58l5.571-5.703l0.029-2.889c8.621-10.279,21.114-16.245,34.662-16.245c15.952,0,30.498,8.284,38.885,22.155
	l180.439,332.057c8.68,14.868,8.709,31.715,0.616,45.922c-8.211,14.399-22.433,22.667-39.06,22.667H75.103z" fill="#fedb41" data-original="#fedb41" class=""></path>
<path style="" d="M502.013,459.591c-13.512,23.721-37.834,37.836-65.161,37.836H255.981V14.571
	c26.725,0,50.748,13.814,64.562,36.636L501.715,384.52C515.226,407.642,515.526,435.869,502.013,459.591z" fill="#fe9923" data-original="#fe9923" class=""></path>
<path style="" d="M436.859,467.399c16.627,0,30.849-8.27,39.06-22.667c8.094-14.207,8.065-31.054-0.616-45.922
	L294.865,66.751c-8.387-13.87-22.932-22.155-38.885-22.155v422.802h180.879V467.399z" fill="#ffcc33" data-original="#ffcc33" class=""></path>
<path style="" d="M286.01,167.115v120.114c0,16.516-13.513,30.028-30.028,30.028s-30.028-13.513-30.028-30.028V167.115
	c0-16.516,13.513-30.028,30.028-30.028S286.01,150.599,286.01,167.115z" fill="#495a79" data-original="#495a79" class=""></path>
<path style="" d="M286.01,167.115v120.114c0,16.516-13.513,30.028-30.028,30.028v-180.17
	C272.496,137.087,286.01,150.599,286.01,167.115z" fill="#42516d" data-original="#42516d" class=""></path>
<path style="" d="M255.981,347.285c-24.925,0-45.043,20.118-45.043,45.043c0,24.923,20.118,45.043,45.043,45.043
	s45.043-20.12,45.043-45.043C301.024,367.404,280.905,347.285,255.981,347.285z" fill="#495a79" data-original="#495a79" class=""></path>
<path style="" d="M301.024,392.328c0,24.923-20.118,45.043-45.043,45.043v-90.085
	C280.905,347.285,301.024,367.404,301.024,392.328z" fill="#42516d" data-original="#42516d" class=""></path>
<g>
</g>
<g>
</g>
<g>
</g>
<g>
</g>
<g>
</g>
<g>
</g>
<g>
</g>
<g>
</g>
<g>
</g>
<g>
</g>
<g>
</g>
<g>
</g>
<g>
</g>
<g>
</g>
<g>
</g>
</g></svg>